<?xml version="1.0" standalone="no"?><!DOCTYPE svg PUBLIC "-//W3C//DTD SVG 1.1//EN" "http://www.w3.org/Graphics/SVG/1.1/DTD/svg11.dtd"><svg t="1596610460618" class="icon" viewBox="0 0 1024 1024" version="1.1" xmlns="http://www.w3.org/2000/svg" p-id="18138" xmlns:xlink="http://www.w3.org/1999/xlink" width="200" height="200"><defs><style type="text/css"></style></defs><path d="M515 142.5l317.4 183.2v366.5L515 875.4 197.7 692.2V325.7L515 142.5m0-73.8c-5.3 0-10.5 1.4-15.3 4.1L144.9 277.6c-9.4 5.5-15.3 15.5-15.3 26.4v409.7c0 10.9 5.8 21 15.3 26.4L499.7 945c4.7 2.7 10 4.1 15.3 4.1 5.3 0 10.5-1.4 15.3-4.1l354.8-204.9c9.4-5.5 15.3-15.5 15.3-26.4V304c0-10.9-5.8-21-15.3-26.4L530.3 72.8c-4.7-2.8-10-4.1-15.3-4.1z" p-id="18139" fill="#1296db"></path><path d="M353.9 434.4h109c3.9-8.4 7.8-17.3 11.8-26.7l36.1 6.3c-1.6 4.7-4.2 11.5-7.8 20.4h185.5v34.1H486c-11.5 19.6-25.2 38.6-41.2 56.9v164.7h-35.7V560.3c-14.9 12.8-30.3 24.6-46.3 35.3L339.4 565c43.4-28 77.8-60.1 103.1-96.5h-88.6v-34.1z m-6.3-81.9h86.3v-24.7h37.6v24.7h94.9v-24.7H604v24.7h86.3v34.1H604v25.5h-37.6v-25.5h-94.9v25.1h-37.6v-25.1h-86.3v-34.1z m223.5 198.8c10.2-6.8 23.9-15.4 41.2-25.9H494.6v-33.7h171v26.7c-9.2 7.3-28.1 21.6-56.9 42.7v9h82v35.3h-82V654c0 23.3-11.6 34.9-34.9 34.9h-47.4l-11-36.1c18.6 1.6 33.1 2.4 43.5 2.4 8.1 0 12.2-3.9 12.2-11.8v-38H467.2v-35.3h103.9v-18.8z" p-id="18140" fill="#1296db"></path></svg>