<?xml version="1.0" standalone="no"?><!DOCTYPE svg PUBLIC "-//W3C//DTD SVG 1.1//EN" "http://www.w3.org/Graphics/SVG/1.1/DTD/svg11.dtd"><svg t="1596607690286" class="icon" viewBox="0 0 1024 1024" version="1.1" xmlns="http://www.w3.org/2000/svg" p-id="4920" xmlns:xlink="http://www.w3.org/1999/xlink" width="200" height="200"><defs><style type="text/css"></style></defs><path d="M503.466667 448c4.266667 6.4 12.8 6.4 17.066666 0 19.2-27.733333 46.933333-46.933333 68.266667-61.866667 21.333333-14.933333 44.8-32 68.266667-55.466666 6.4-6.4 2.133333-17.066667-6.4-17.066667-14.933333-2.133333-29.866667-4.266667-53.333334-4.266667-85.333333 0-85.333333 21.333333-170.666666 21.333334-12.8 0-25.6 0-36.266667-2.133334-10.666667 0-14.933333 10.666667-8.533333 19.2 17.066667 14.933333 34.133333 27.733333 51.2 38.4 23.466667 14.933333 51.2 34.133333 70.4 61.866667M379.733333 832h266.666667c4.266667 0 6.4-6.4 2.133333-8.533333l-125.866666-70.4c-6.4-4.266667-14.933333-4.266667-21.333334 0l-123.733333 70.4c-4.266667 2.133333-4.266667 8.533333 2.133333 8.533333" fill="#f4ea2a" p-id="4921"></path><path d="M170.666667 917.333333c0-256 125.866667-339.2 192-386.133333 8.533333-6.4 21.333333-14.933333 27.733333-19.2-6.4-6.4-19.2-12.8-27.733333-19.2C296.533333 445.866667 170.666667 362.666667 170.666667 106.666667c0-23.466667 19.2-42.666667 42.666666-42.666667h597.333334c23.466667 0 42.666667 19.2 42.666666 42.666667 0 256-125.866667 339.2-192 386.133333-8.533333 6.4-21.333333 14.933333-27.733333 19.2 6.4 6.4 19.2 12.8 27.733333 19.2C727.466667 576 853.333333 661.333333 853.333333 917.333333c0 23.466667-19.2 42.666667-42.666666 42.666667H213.333333c-23.466667 0-42.666667-19.2-42.666666-42.666667z m238.933333-494.933333c34.133333 23.466667 70.4 46.933333 70.4 89.6s-36.266667 68.266667-70.4 89.6c-55.466667 40.533333-140.8 96-151.466667 273.066667H768c-10.666667-177.066667-96-232.533333-153.6-273.066667-34.133333-23.466667-70.4-46.933333-70.4-89.6s36.266667-68.266667 70.4-89.6C672 384 755.2 326.4 768 149.333333H258.133333c10.666667 177.066667 96 232.533333 151.466667 273.066667z" fill="#f4ea2a" p-id="4922"></path></svg>